<?xml version="1.0" standalone="no"?>
<!DOCTYPE svg PUBLIC "-//W3C//DTD SVG 20010904//EN"
 "http://www.w3.org/TR/2001/REC-SVG-20010904/DTD/svg10.dtd">
<svg version="1.0" xmlns="http://www.w3.org/2000/svg"
 width="168.000000pt" height="168.000000pt" viewBox="0 0 168.000000 168.000000"
 preserveAspectRatio="xMidYMid meet">
<metadata>
Created by potrace 1.14, written by Peter Selinger 2001-2017
</metadata>
<g transform="translate(0.000000,168.000000) scale(0.100000,-0.100000)"
fill="#000000" stroke="none">
<path d="M482 1327 c-5 -7 -26 -43 -47 -81 -34 -65 -36 -72 -26 -110 13 -48
42 -199 38 -201 -1 0 -15 -5 -32 -11 -19 -6 -37 -23 -50 -47 -11 -20 -28 -40
-38 -43 -10 -3 -22 -17 -27 -30 -6 -16 -17 -24 -33 -24 -63 0 -75 -75 -22
-132 37 -41 64 -47 91 -21 25 26 54 24 54 -3 0 -38 70 -60 98 -32 17 17 15 53
-3 68 -8 7 -15 20 -15 29 0 9 -7 27 -16 39 -20 29 -15 96 7 100 19 4 31 -39
50 -183 7 -49 15 -110 18 -135 l6 -45 80 -8 c44 -4 83 -11 87 -15 4 -4 10 -22
14 -39 6 -29 2 -34 -42 -67 -27 -19 -56 -36 -66 -36 -25 0 -98 -73 -98 -98 0
-60 162 -162 269 -170 46 -3 61 0 84 18 15 12 27 30 27 41 0 29 -63 92 -119
119 -28 13 -51 26 -50 29 0 3 23 23 50 44 l50 38 -6 63 c-7 62 -6 64 23 85 40
28 51 27 59 -9 5 -28 8 -30 53 -30 46 0 60 -10 60 -41 0 -5 -25 -25 -55 -44
-42 -28 -55 -41 -55 -60 0 -14 -4 -25 -10 -25 -14 0 -12 -43 3 -62 21 -27 115
-86 175 -109 62 -25 153 -30 189 -10 62 32 19 116 -82 162 -35 16 -81 31 -103
35 l-40 6 40 36 c40 36 44 55 24 102 -4 11 10 25 49 50 52 33 55 37 55 75 0
22 -9 82 -20 134 -23 107 -20 115 41 131 22 6 39 15 39 19 0 5 13 14 29 21 19
7 35 26 47 53 10 23 29 52 41 64 27 26 22 47 -21 85 -38 34 -57 35 -93 4 l-28
-24 -10 32 c-7 21 -17 32 -32 34 -32 5 -50 -36 -36 -81 7 -22 6 -40 -1 -56 -7
-15 -7 -28 1 -39 7 -12 7 -26 1 -42 -9 -22 -14 -14 -44 75 -18 55 -52 153 -75
217 -47 130 -41 124 -157 150 l-62 15 -30 -49 c-16 -26 -32 -48 -34 -48 -3 0
-14 20 -25 45 l-20 45 -63 0 c-35 1 -84 3 -110 5 -29 3 -50 0 -56 -8z"/>
</g>
</svg>
